<svg xmlns="http://www.w3.org/2000/svg" version="1.1" xmlns:xlink="http://www.w3.org/1999/xlink" xmlns:svgjs="http://svgjs.dev/svgjs" width="2000" height="343" viewBox="0 0 2000 343"><g transform="matrix(1,0,0,1,-1.2121212121213603,-1.0418696923529467)"><svg viewBox="0 0 396 68" data-background-color="#ffffff" preserveAspectRatio="xMidYMid meet" height="343" width="2000" xmlns="http://www.w3.org/2000/svg" xmlns:xlink="http://www.w3.org/1999/xlink"><g id="tight-bounds" transform="matrix(1,0,0,1,0.24000000000003752,0.2065514258892165)"><svg viewBox="0 0 395.5199999999999 67.58689513024717" height="67.58689513024717" width="395.5199999999999"><g><svg viewBox="0 0 517.4216532878697 88.4175844935436" height="67.58689513024717" width="395.5199999999999"><g><rect width="5.36962105716158" height="85.73050884323328" x="102.47543260463077" y="1.3435378251551597" fill="#aa6dc2" opacity="1" stroke-width="0" stroke="transparent" fill-opacity="1" class="rect-o-0" data-fill-palette-color="primary" rx="1%" id="o-0" data-palette-color="#aa6dc2"></rect></g><g transform="matrix(1,0,0,1,121.90165328786978,1.5567977974020053)"><svg viewBox="0 0 395.52 85.30398889873959" height="85.30398889873959" width="395.52"><g><svg viewBox="0 0 395.52 85.30398889873959" height="85.30398889873959" width="395.52"><g><svg viewBox="0 0 395.52 59.54268805841099" height="59.54268805841099" width="395.52"><g transform="matrix(1,0,0,1,0,0)"><svg width="395.52" viewBox="3.25 -37.5 254.10000610351562 38.2599983215332" height="59.54268805841099" data-palette-color="#aa6dc2"><g class="undefined-text-0" data-fill-palette-color="primary" id="text-0"><path d="M8.15-9.67L8.15-9.67 8.15-3.39Q8.15-2.2 7.64-1.61L7.64-1.61Q7.03-0.88 5.92-0.32 4.81 0.24 4.1 0.24L4.1 0.24Q3.25 0.24 3.25-0.81L3.25-0.81 3.25-9.67Q3.25-10.55 3.87-10.86 4.49-11.18 5.74-11.18L5.74-11.18Q7.08-11.18 7.62-10.88 8.15-10.57 8.15-9.67ZM3.25-14.43L3.25-14.43 3.25-27.44Q3.25-28.32 3.85-28.6 4.44-28.88 5.69-28.88L5.69-28.88Q7.06-28.88 7.6-28.6 8.15-28.32 8.15-27.44L8.15-27.44 8.15-17.26Q8.15-16.21 9.08-16.21L9.08-16.21 13.16-16.21Q14.21-16.21 14.21-15.6L14.21-15.6Q14.21-15.01 13.15-14.25 12.08-13.48 10.42-12.96L10.42-12.96Q9.4-12.65 5.35-12.65L5.35-12.65Q4.1-12.65 3.67-13.09 3.25-13.53 3.25-14.43ZM18.95-22.14L18.95-22.14Q18.95-30.27 9.3-30.27L9.3-30.27 4.2-30.27Q3.88-30.27 3.7-30.3 3.52-30.32 3.38-30.46 3.25-30.59 3.25-30.83L3.25-30.83Q3.25-31.86 4.65-33.03 6.05-34.2 7.45-34.25L7.45-34.25 10.03-34.28 13.16-34.25Q14.48-34.23 15.83-33.95 17.19-33.67 18.73-32.89 20.26-32.1 21.44-30.91 22.61-29.71 23.38-27.69 24.15-25.66 24.15-23.1L24.15-23.1Q24.15-22.09 23.89-20.9 23.63-19.7 22.94-18.24 22.24-16.77 21.2-15.56 20.17-14.36 18.41-13.42 16.65-12.48 14.45-12.21L14.45-12.21 14.31-12.21Q13.65-12.21 13.65-12.77L13.65-12.77Q13.65-13.11 14.21-13.45L14.21-13.45Q18.95-16.38 18.95-22.14ZM32.91-15.55L32.91-15.55Q32.91-14.87 33.33-14.69 33.76-14.5 34.59-14.5L34.59-14.5Q36.72-14.5 38.23-14.87 39.74-15.23 40.55-15.89 41.35-16.55 41.71-17.29 42.06-18.02 42.06-18.9L42.06-18.9Q42.06-20.41 41.01-21.33 39.96-22.24 37.64-22.24L37.64-22.24Q34.01-22.24 30.81-19.95L30.81-19.95Q29.86-19.24 29.61-19.24L29.61-19.24Q29.2-19.24 29.2-19.7L29.2-19.7Q29.2-20.31 29.9-21.19L29.9-21.19Q31.22-22.88 32.91-23.95 34.59-25.02 35.98-25.39 37.38-25.76 38.74-25.76L38.74-25.76Q40.5-25.76 41.92-25.39 43.33-25.02 44.43-24.26 45.53-23.49 46.14-22.16 46.75-20.83 46.75-19.04L46.75-19.04Q46.75-15.23 43.12-13.17 39.5-11.11 33.23-11.11L33.23-11.11Q31.47-11.11 29.25-11.3L29.25-11.3Q28.15-11.38 28.15-12.38L28.15-12.38Q28.15-15.09 28.93-16.44 29.71-17.8 30.95-18.53L30.95-18.53Q32.18-19.24 32.81-19.24L32.81-19.24Q33.4-19.24 33.4-18.51L33.4-18.51Q33.4-18.21 33.15-17.08 32.91-15.94 32.91-15.55ZM28.34-8.74L28.34-8.74Q28.34-10.01 29.51-10.01L29.51-10.01 31.61-10.01Q32.25-10.01 32.5-9.77 32.76-9.52 32.91-8.69L32.91-8.69Q33.86-2.76 39.4-2.76L39.4-2.76Q40.79-2.76 42.01-3.1 43.23-3.44 43.91-3.86 44.58-4.27 45.15-4.61 45.73-4.96 45.99-4.96L45.99-4.96Q46.56-4.96 46.56-4.35L46.56-4.35Q46.56-3.83 45.99-3.03 45.43-2.22 44.39-1.35 43.36-0.49 41.54 0.13 39.72 0.76 37.6 0.76L37.6 0.76Q33.2 0.76 30.77-1.89 28.34-4.54 28.34-8.74ZM51.7-0.81L51.7-0.81 51.7-13.94Q51.7-15.31 52.36-16.04L52.36-16.04Q53.02-16.8 53.93-17.4 54.83-17.99 55.34-17.99L55.34-17.99Q56.1-17.99 56.1-16.94L56.1-16.94 56.1-2.91Q56.1-1.56 54.89-0.66 53.68 0.24 52.56 0.24L52.56 0.24Q51.7 0.24 51.7-0.81ZM57.44-23.68L57.44-23.68Q58.83-24.71 60.35-25.23 61.86-25.76 63.06-25.76L63.06-25.76Q67.3-25.76 69.28-23.38 71.26-21 71.26-15.41L71.26-15.41 71.26-2.91Q71.26-1.59 70.06-0.67 68.87 0.24 67.72 0.24L67.72 0.24Q66.87 0.24 66.87-0.81L66.87-0.81 66.87-10.45Q66.87-12.74 66.83-13.92 66.79-15.09 66.63-16.72 66.47-18.36 66.11-19.15 65.74-19.95 65.12-20.78 64.5-21.61 63.5-21.92 62.5-22.24 61.1-22.24L61.1-22.24Q58.3-22.24 53.41-18.51L53.41-18.51Q52.63-17.9 52.19-17.9L52.19-17.9Q51.7-17.9 51.7-18.73L51.7-18.73 51.7-22.61Q51.7-23.93 52.91-24.84 54.12-25.76 55.24-25.76L55.24-25.76Q56.1-25.76 56.1-24.71L56.1-24.71 56.1-24.1Q56.1-23.22 56.49-23.22L56.49-23.22Q56.83-23.22 57.44-23.68ZM83.68-18.9L83.68-18.9 83.68-10.35Q83.68-8.25 83.93-6.8 84.17-5.35 84.65-4.44 85.12-3.54 85.84-3.15 86.56-2.76 87.54-2.76L87.54-2.76Q88.69-2.76 89.46-3.04 90.23-3.32 90.74-3.65 91.25-3.98 91.59-4.26 91.94-4.54 92.28-4.54L92.28-4.54Q92.6-4.54 92.74-4.36 92.89-4.17 92.89-3.88L92.89-3.88Q92.89-3.47 92.56-2.7 92.23-1.93 91.45-1.16 90.67-0.39 89.38 0.18 88.1 0.76 86.17 0.76L86.17 0.76Q84.29 0.76 82.99 0.22 81.68-0.32 80.85-1.53 80.02-2.73 79.66-4.68 79.29-6.62 79.29-9.45L79.29-9.45 79.29-18.9Q79.29-19.43 79.52-19.71 79.75-20 80.11-20.12 80.46-20.24 80.84-20.24 81.22-20.24 81.51-20.24L81.51-20.24Q81.95-20.24 82.35-20.2 82.76-20.17 83.05-20.03 83.34-19.9 83.51-19.63 83.68-19.36 83.68-18.9ZM78.02-24.19L78.02-24.19 78.02-22.8Q78.02-22.19 77.75-21.85 77.48-21.51 76.73-21.51L76.73-21.51 75.58-21.51Q74.72-21.51 74.72-22.05L74.72-22.05Q74.72-22.71 75.79-23.85 76.85-25 77.48-25L77.48-25Q78.02-25 78.02-24.19ZM83.68-29.44L83.68-29.44 83.68-26.29Q83.68-25.54 84.03-25.27 84.37-25 84.98-25L84.98-25 91.52-25Q92.38-25 92.38-24.44L92.38-24.44Q92.38-23.85 91.56-22.97 90.74-22.09 89.93-21.8L89.93-21.8Q89.15-21.51 87.13-21.51L87.13-21.51 80.58-21.51Q79.97-21.51 79.63-21.78 79.29-22.05 79.29-22.8L79.29-22.8 79.29-27.42Q79.29-28.76 80.49-29.63 81.68-30.49 82.83-30.49L82.83-30.49Q83.68-30.49 83.68-29.44ZM106.31-25.76L106.31-25.76Q108.36-25.76 110-25.22 111.64-24.68 112.76-23.5 113.88-22.31 114.48-20.45 115.08-18.58 115.08-15.94L115.08-15.94 115.08-2.71Q115.08-2.1 114.7-1.56 114.32-1.03 113.77-0.62 113.22-0.22 112.6 0.01 111.98 0.24 111.51 0.24L111.51 0.24Q110.66 0.24 110.66-0.81L110.66-0.81 110.66-15.04Q110.66-22.24 104.95-22.24L104.95-22.24Q101.63-22.24 98.92-20.41L98.92-20.41Q97.84-19.7 97.52-19.7L97.52-19.7Q97.16-19.7 97.16-20.09L97.16-20.09Q97.16-20.78 97.91-21.7L97.91-21.7Q101.24-25.76 106.31-25.76ZM108.8-1.37L108.8-1.37Q107.78-0.44 106.26 0.16 104.75 0.76 103.36 0.76L103.36 0.76Q100.11 0.76 98.39-0.96 96.67-2.69 96.67-5.2L96.67-5.2Q96.67-7.01 97.91-7.96L97.91-7.96Q99.04-8.84 99.87-8.84L99.87-8.84Q100.14-8.84 100.33-8.64 100.53-8.45 100.53-8.06L100.53-8.06Q100.53-5.27 101.48-4.02 102.43-2.76 104.87-2.76L104.87-2.76Q105.61-2.76 106.66-3.02 107.7-3.27 108.44-3.71L108.44-3.71Q108.88-3.98 109.1-3.98L109.1-3.98Q109.44-3.98 109.44-3.08L109.44-3.08Q109.44-1.95 108.8-1.37ZM108.61-14.55L108.61-14.55Q109.07-14.31 109.24-13.9 109.41-13.5 109.41-12.4L109.41-12.4Q109.41-11.43 109.26-11 109.1-10.57 108.68-10.57L108.68-10.57Q108.41-10.57 107.92-10.79L107.92-10.79Q105.63-11.79 103.77-11.79L103.77-11.79Q100.77-11.79 98.06-9.62L98.06-9.62Q97.21-8.94 96.91-8.94L96.91-8.94Q96.52-8.94 96.52-9.38L96.52-9.38Q96.52-10.06 97.01-10.86L97.01-10.86Q98.31-13.04 100.42-14.17 102.53-15.31 105.12-15.31L105.12-15.31Q107.09-15.31 108.61-14.55ZM126.75-25.66L126.75-25.66Q126.75-25.29 126.48-24.05 126.21-22.8 125.93-20.75 125.65-18.7 125.65-16.41L125.65-16.41Q125.65-14.62 125.79-13.15 125.94-11.67 126.29-10.12 126.65-8.57 127.32-7.4 127.99-6.23 128.97-5.29 129.94-4.35 131.41-3.85 132.87-3.34 134.75-3.34L134.75-3.34Q136.49-3.34 138-3.74 139.51-4.13 140.31-4.6 141.1-5.08 141.77-5.47 142.44-5.86 142.71-5.86L142.71-5.86Q143.3-5.86 143.3-5.25L143.3-5.25Q143.3-4.88 142.99-4.22 142.69-3.56 141.91-2.69 141.13-1.81 140.01-1.05 138.9-0.29 137.02 0.23 135.14 0.76 132.9 0.76L132.9 0.76Q129.33 0.76 126.89-0.32 124.45-1.39 123.07-3.54 121.69-5.69 121.12-8.5 120.54-11.3 120.54-15.21L120.54-15.21Q120.54-17.97 120.89-20.19 121.23-22.41 121.72-23.36L121.72-23.36Q122.33-24.58 123.63-25.5 124.94-26.42 126.01-26.42L126.01-26.42Q126.75-26.42 126.75-25.66ZM142.81-32.1L142.81-32.1Q142.81-31.1 141-29.81L141-29.81Q140.27-29.2 139.34-29.2L139.34-29.2Q139.12-29.2 138.93-29.24 138.73-29.27 138.49-29.36 138.24-29.44 138.1-29.49 137.95-29.54 137.62-29.69 137.29-29.83 137.15-29.91L137.15-29.91Q134.56-31.01 132.36-31.01L132.36-31.01Q127.97-31.01 123.82-27.34L123.82-27.34Q123.69-27.25 123.45-27.05 123.21-26.86 123.07-26.75 122.94-26.64 122.75-26.5 122.57-26.37 122.44-26.31 122.3-26.25 122.2-26.25L122.2-26.25Q121.64-26.25 121.64-26.86L121.64-26.86Q121.64-27.64 122.96-29.3L122.96-29.3Q125.21-32.08 128.15-33.54 131.09-35.01 135.31-35.01L135.31-35.01Q138.56-35.01 141.25-33.69L141.25-33.69Q141.71-33.47 141.92-33.36 142.13-33.25 142.47-32.89 142.81-32.52 142.81-32.1ZM157.85-25.76L157.85-25.76Q163.41-25.76 166.04-22.47 168.66-19.19 168.66-12.79L168.66-12.79Q168.66-10.82 168.16-8.56 167.66-6.3 166.81-4.54L166.81-4.54Q165.88-2.69 164.54-1.39 163.19-0.1 162.36-0.1L162.36-0.1Q161.85-0.1 161.85-0.56L161.85-0.56Q161.85-0.71 162.02-0.95 162.19-1.2 162.49-1.7 162.78-2.2 163-2.86L163-2.86Q164-5.59 164-10.6L164-10.6Q164-13.35 163.62-15.39 163.24-17.43 162.38-19.02 161.51-20.61 159.97-21.42 158.43-22.24 156.21-22.24L156.21-22.24Q153.13-22.24 149.86-20L149.86-20Q149.74-19.9 149.5-19.74 149.25-19.58 149.12-19.48 148.98-19.38 148.84-19.31 148.69-19.24 148.59-19.24L148.59-19.24Q148.25-19.24 148.25-19.65L148.25-19.65Q148.25-19.92 148.53-20.43 148.81-20.95 149.01-21.19L149.01-21.19Q152.57-25.76 157.85-25.76ZM151.89-13.48L151.89-13.48Q151.89-11.77 151.96-10.55 152.04-9.33 152.24-8.01 152.45-6.69 152.88-5.81 153.31-4.93 153.95-4.2 154.6-3.47 155.6-3.11 156.6-2.76 157.94-2.76L157.94-2.76Q159.09-2.76 159.96-3.08 160.82-3.39 160.95-3.39L160.95-3.39Q161.46-3.39 161.46-2.86L161.46-2.86Q161.46-1.76 159.88-0.5 158.31 0.76 156.02 0.76L156.02 0.76Q153.89 0.76 152.32 0.05 150.74-0.66 149.79-1.81 148.84-2.95 148.26-4.69 147.69-6.42 147.49-8.18 147.3-9.94 147.3-12.16L147.3-12.16Q147.3-13.4 147.54-14.78 147.79-16.16 148.2-16.89L148.2-16.89Q148.72-17.77 149.85-18.51 150.99-19.24 151.79-19.24L151.79-19.24Q152.4-19.24 152.4-18.51L152.4-18.51Q152.4-18.38 152.15-16.63 151.89-14.87 151.89-13.48ZM189.56-0.81L189.56-0.81 189.56-34.35Q189.56-35.3 190-35.84L190-35.84Q190.63-36.57 191.5-37.04 192.37-37.5 193.1-37.5L193.1-37.5Q193.95-37.5 193.95-36.45L193.95-36.45 193.95-2.91Q193.95-1.98 193.51-1.39L193.51-1.39Q192.88-0.66 192.01-0.21 191.14 0.24 190.41 0.24L190.41 0.24Q189.56 0.24 189.56-0.81ZM187.48-3.81L187.48-3.81Q187.82-3.98 187.92-3.98L187.92-3.98Q188.34-3.98 188.34-3.1L188.34-3.1Q188.34-1.9 187.68-1.29L187.68-1.29Q185.31 0.76 182.11 0.76L182.11 0.76Q181.06 0.76 180.17 0.63 179.28 0.51 178.34 0.17 177.4-0.17 176.67-0.73 175.93-1.29 175.25-2.23 174.57-3.17 174.13-4.42 173.69-5.66 173.42-7.43 173.15-9.2 173.15-11.4L173.15-11.4Q173.15-12.94 173.48-14.5 173.81-16.06 174.3-16.82L174.3-16.82Q174.93-17.77 176.07-18.52 177.2-19.26 178.01-19.26L178.01-19.26Q178.6-19.26 178.6-18.53L178.6-18.53Q178.6-18.36 178.39-17.46 178.18-16.55 177.96-15.03 177.74-13.5 177.74-11.84L177.74-11.84Q177.74-7.2 179.18-4.98 180.62-2.76 183.97-2.76L183.97-2.76Q185.53-2.76 187.48-3.81ZM186.92-21.09L186.92-21.09Q185.02-22.22 182.7-22.22L182.7-22.22Q180.89-22.22 179.33-21.66 177.77-21.09 175.96-19.9L175.96-19.9Q174.96-19.24 174.76-19.24L174.76-19.24Q174.35-19.24 174.35-19.7L174.35-19.7Q174.35-20.31 175.06-21.19L175.06-21.19Q178.28-25.76 183.8-25.76L183.8-25.76Q185.7-25.76 187.31-25.05L187.31-25.05Q187.92-24.78 188.13-24.41 188.34-24.05 188.34-22.88L188.34-22.88Q188.34-20.85 187.6-20.85L187.6-20.85Q187.36-20.85 186.92-21.09ZM203.96-15.55L203.96-15.55Q203.96-14.87 204.39-14.69 204.81-14.5 205.64-14.5L205.64-14.5Q207.77-14.5 209.28-14.87 210.8-15.23 211.6-15.89 212.41-16.55 212.76-17.29 213.11-18.02 213.11-18.9L213.11-18.9Q213.11-20.41 212.06-21.33 211.02-22.24 208.7-22.24L208.7-22.24Q205.06-22.24 201.86-19.95L201.86-19.95Q200.91-19.24 200.66-19.24L200.66-19.24Q200.25-19.24 200.25-19.7L200.25-19.7Q200.25-20.31 200.96-21.19L200.96-21.19Q202.27-22.88 203.96-23.95 205.64-25.02 207.04-25.39 208.43-25.76 209.79-25.76L209.79-25.76Q211.55-25.76 212.97-25.39 214.38-25.02 215.48-24.26 216.58-23.49 217.19-22.16 217.8-20.83 217.8-19.04L217.8-19.04Q217.8-15.23 214.18-13.17 210.55-11.11 204.28-11.11L204.28-11.11Q202.52-11.11 200.3-11.3L200.3-11.3Q199.2-11.38 199.2-12.38L199.2-12.38Q199.2-15.09 199.98-16.44 200.76-17.8 202.01-18.53L202.01-18.53Q203.23-19.24 203.86-19.24L203.86-19.24Q204.45-19.24 204.45-18.51L204.45-18.51Q204.45-18.21 204.2-17.08 203.96-15.94 203.96-15.55ZM199.39-8.74L199.39-8.74Q199.39-10.01 200.57-10.01L200.57-10.01 202.67-10.01Q203.3-10.01 203.56-9.77 203.81-9.52 203.96-8.69L203.96-8.69Q204.91-2.76 210.45-2.76L210.45-2.76Q211.85-2.76 213.07-3.1 214.29-3.44 214.96-3.86 215.63-4.27 216.2-4.61 216.78-4.96 217.05-4.96L217.05-4.96Q217.61-4.96 217.61-4.35L217.61-4.35Q217.61-3.83 217.05-3.03 216.48-2.22 215.45-1.35 214.41-0.49 212.59 0.13 210.77 0.76 208.65 0.76L208.65 0.76Q204.25 0.76 201.82-1.89 199.39-4.54 199.39-8.74ZM222.76-0.81L222.76-0.81 222.76-13.11Q222.76-14.48 223.42-15.21L223.42-15.21Q224.07-15.97 224.98-16.59 225.88-17.21 226.39-17.21L226.39-17.21Q227.15-17.21 227.15-16.16L227.15-16.16 227.15-2.83Q227.15-1.49 225.95-0.62 224.76 0.24 223.61 0.24L223.61 0.24Q222.76 0.24 222.76-0.81ZM233.25-25.76L233.25-25.76Q234.65-25.76 236.17-25.15 237.7-24.54 237.7-23.56L237.7-23.56Q237.7-22.78 236.67-21.94 235.65-21.09 234.87-21.09L234.87-21.09Q234.21-21.09 233.01-21.7L233.01-21.7Q231.89-22.24 230.96-22.24L230.96-22.24Q230.37-22.24 229.84-22.06 229.3-21.88 228.59-21.35 227.88-20.83 227.43-20.45 226.98-20.07 225.89-19.06 224.81-18.04 224.2-17.5L224.2-17.5Q223.66-17.04 223.29-17.04L223.29-17.04Q222.76-17.04 222.76-17.94L222.76-17.94 222.76-22.68Q222.76-24 223.96-24.88 225.17-25.76 226.3-25.76L226.3-25.76Q227.15-25.76 227.15-24.71L227.15-24.71 227.15-23.34Q227.15-22.56 227.49-22.56L227.49-22.56Q227.76-22.56 228.35-23.14L228.35-23.14Q230.96-25.76 233.25-25.76ZM253.78-5.54L253.78-5.54Q253.78-8.15 252.36-9.28 250.93-10.4 248.24-10.64L248.24-10.64Q245.87-10.86 244.16-11.45 242.46-12.04 241.5-12.88 240.55-13.72 240.12-14.69 239.7-15.65 239.7-16.77L239.7-16.77Q239.7-17.92 240.87-18.81 242.04-19.7 242.85-19.7L242.85-19.7Q243.41-19.7 243.6-18.95L243.6-18.95Q243.8-18.12 244.01-17.55 244.21-16.99 244.59-16.56 244.97-16.14 245.35-15.88 245.73-15.63 246.52-15.42 247.31-15.21 248.03-15.09 248.75-14.97 250.1-14.79L250.1-14.79Q252.22-14.53 253.71-13.83 255.2-13.13 255.96-12.11 256.71-11.08 257.03-9.99 257.35-8.89 257.35-7.5L257.35-7.5Q257.35-5.93 256.82-4.5 256.3-3.08 255.54-2.19 254.78-1.29 254-0.77 253.22-0.24 252.64-0.24L252.64-0.24Q252.25-0.24 252.25-0.61L252.25-0.61Q252.25-0.76 252.64-1.34L252.64-1.34Q253.78-3.2 253.78-5.54ZM255.39-24.34L255.39-24.34Q256.15-23.75 256.15-23.19L256.15-23.19Q256.15-22.58 255.14-21.69 254.13-20.8 253.3-20.8L253.3-20.8Q253.05-20.8 252.86-20.86 252.66-20.92 252.28-21.08 251.9-21.24 251.73-21.29L251.73-21.29Q249.44-22.24 247.61-22.24L247.61-22.24Q244.16-22.24 241.55-20.65L241.55-20.65Q241.38-20.56 241.08-20.36 240.77-20.17 240.59-20.06 240.4-19.95 240.28-19.95L240.28-19.95Q239.94-19.95 239.94-20.36L239.94-20.36Q239.94-20.9 240.7-21.85L240.7-21.85Q243.92-25.76 249.76-25.76L249.76-25.76Q251.29-25.76 252.9-25.39 254.52-25.02 255.39-24.34ZM244.34-4L244.34-4Q245.14-3.52 245.45-3.34 245.75-3.17 246.5-2.97 247.24-2.76 248.1-2.76L248.1-2.76Q249.17-2.76 250.22-3.08 251.27-3.39 251.32-3.39L251.32-3.39Q251.88-3.39 251.88-2.81L251.88-2.81Q251.88-2.42 251.49-1.84 251.1-1.27 250.39-0.67 249.68-0.07 248.45 0.34 247.22 0.76 245.75 0.76L245.75 0.76Q243.7 0.76 241.82-0.2 239.94-1.15 239.94-2.15L239.94-2.15Q239.94-2.91 240.95-3.7 241.97-4.49 242.89-4.49L242.89-4.49Q243.51-4.49 244.34-4Z" fill="#aa6dc2" data-fill-palette-color="primary"></path></g></svg></g></svg></g><g transform="matrix(1,0,0,1,0,73.59928768448842)"><svg viewBox="0 0 232.209792 11.704701214251166" height="11.704701214251166" width="232.209792"><g transform="matrix(1,0,0,1,0,0)"><svg width="232.209792" viewBox="1.7999999523162842 -35 930.3699951171875 46.900001525878906" height="11.704701214251166" data-palette-color="#39a9f5"><path d="M29.1-11.9L33.95-11.9 33.95 0 1.8 0 1.8-4.15 8.25-4.15 8.25-30.15 1.8-30.15 1.8-34.3 19.8-34.3 19.8-30.15 13.4-30.15 13.4-4.15 29.1-4.15 29.1-11.9ZM60.35-6.7L62.45-3.5Q57.65 0.7 51.5 0.7L51.5 0.7Q48.15 0.7 45.15-0.7 42.15-2.1 40.3-4.8 38.45-7.5 38.45-11.2L38.45-11.2Q38.45-15.15 40.35-18.1 42.25-21.05 45.3-22.63 48.35-24.2 51.7-24.2L51.7-24.2Q54.65-24.2 56.97-23.25 59.3-22.3 60.62-20.6 61.95-18.9 61.95-16.7L61.95-16.7Q61.95-13.4 59.12-11.58 56.3-9.75 52.35-9.75L52.35-9.75Q49.8-9.75 47.6-10.28 45.4-10.8 43.15-11.8L43.15-11.8 43.15-11.35Q43.15-9 44.27-7.2 45.4-5.4 47.3-4.45 49.2-3.5 51.45-3.5L51.45-3.5Q56.55-3.5 60.35-6.7L60.35-6.7ZM52.05-20.3Q49.35-20.3 47.02-18.75 44.7-17.2 43.7-14.55L43.7-14.55Q47.5-13.2 51.3-13.2L51.3-13.2Q53.8-13.2 55.42-14.13 57.05-15.05 57.05-16.7L57.05-16.7Q57.05-18.3 55.65-19.3 54.25-20.3 52.05-20.3L52.05-20.3ZM92.3-4.15L93.3-0.6Q91.65 0.4 89.45 0.4L89.45 0.4Q87.6 0.4 86.32-0.68 85.05-1.75 84.55-3.75L84.55-3.75Q79.55 0.7 74.65 0.7L74.65 0.7Q71.2 0.7 68.8-1.25 66.4-3.2 66.4-6.7L66.4-6.7Q66.4-9.1 67.75-10.88 69.1-12.65 71.37-13.58 73.65-14.5 76.3-14.5L76.3-14.5Q78.55-14.5 80.45-14.08 82.35-13.65 84.35-12.85L84.35-12.85 84.35-15.05Q84.35-17.6 82.65-18.8 80.95-20 78.2-20L78.2-20Q74.3-20 68.8-17.85L68.8-17.85 67.8-21.65Q73.7-24.15 78.8-24.15L78.8-24.15Q83.65-24.15 86.32-21.78 89-19.4 89-14.85L89-14.85 89-6.2Q89-3.75 90.75-3.75L90.75-3.75Q91.5-3.75 92.3-4.15L92.3-4.15ZM71.25-6.95Q71.25-5.25 72.6-4.33 73.95-3.4 75.9-3.4L75.9-3.4Q77.6-3.4 79.8-4.3 82-5.2 84.35-6.95L84.35-6.95 84.35-9.6Q80.95-10.8 77.15-10.9L77.15-10.9Q74.7-10.9 72.97-9.88 71.25-8.85 71.25-6.95L71.25-6.95ZM116.89-24.15L118.99-24.15 118.99-14.15 114.64-14.15 114.64-19.3Q112.69-19.3 110.39-17.85 108.09-16.4 105.64-13.75L105.64-13.75 105.64-3.95 110.99-3.95 110.99 0 95.44 0 95.44-3.95 100.74-3.95 100.74-19.6 95.44-19.6 95.44-23.55 105.64-23.55 105.64-17.65Q108.29-20.7 111.17-22.43 114.04-24.15 116.89-24.15L116.89-24.15ZM152.44-3.95L157.14-3.95 157.14 0 143.24 0 143.24-3.95 147.59-3.95 147.59-13.7Q147.59-16.45 146.22-18.03 144.84-19.6 142.29-19.6L142.29-19.6Q137.94-19.6 133.09-14.1L133.09-14.1 133.09-3.95 137.44-3.95 137.44 0 122.89 0 122.89-3.95 128.19-3.95 128.19-19.6 122.89-19.6 122.89-23.55 133.09-23.55 133.09-18Q135.89-21.1 138.47-22.63 141.04-24.15 143.99-24.15L143.99-24.15Q148.04-24.15 150.24-21.55 152.44-18.95 152.44-13.85L152.44-13.85 152.44-3.95ZM166.49-28.9Q164.89-28.9 163.79-29.75 162.69-30.6 162.69-31.9L162.69-31.9Q162.69-33.25 163.79-34.13 164.89-35 166.49-35L166.49-35Q168.19-35 169.29-34.13 170.39-33.25 170.39-31.9L170.39-31.9Q170.39-30.6 169.29-29.75 168.19-28.9 166.49-28.9L166.49-28.9ZM169.49-3.95L174.84-3.95 174.84 0 159.29 0 159.29-3.95 164.59-3.95 164.59-19.6 159.29-19.6 159.29-23.55 169.49-23.55 169.49-3.95ZM206.59-3.95L211.29-3.95 211.29 0 197.39 0 197.39-3.95 201.74-3.95 201.74-13.7Q201.74-16.45 200.36-18.03 198.99-19.6 196.44-19.6L196.44-19.6Q192.09-19.6 187.24-14.1L187.24-14.1 187.24-3.95 191.59-3.95 191.59 0 177.04 0 177.04-3.95 182.34-3.95 182.34-19.6 177.04-19.6 177.04-23.55 187.24-23.55 187.24-18Q190.04-21.1 192.61-22.63 195.19-24.15 198.14-24.15L198.14-24.15Q202.19-24.15 204.39-21.55 206.59-18.95 206.59-13.85L206.59-13.85 206.59-3.95ZM232.33-4.45Q235.53-4.45 237.51-2.85 239.48-1.25 239.48 1.65L239.48 1.65Q239.48 4.45 237.38 6.55 235.28 8.65 231.73 9.78 228.18 10.9 224.03 10.9L224.03 10.9Q218.98 10.9 215.76 9.03 212.53 7.15 212.53 3.9L212.53 3.9Q212.53 2.45 213.31 1.18 214.08-0.1 215.28-1.05L215.28-1.05Q214.28-1.8 213.76-2.83 213.23-3.85 213.23-5L213.23-5Q213.23-6.85 214.28-8.33 215.33-9.8 217.03-10.8L217.03-10.8Q215.33-12.9 215.33-15.6L215.33-15.6Q215.33-18.3 216.91-20.25 218.48-22.2 220.93-23.2 223.38-24.2 225.93-24.2L225.93-24.2Q228.88-24.2 231.38-23.1L231.38-23.1Q232.28-25.7 234.31-27.05 236.33-28.4 239.13-28.5L239.13-28.5 239.13-24.4Q237.18-24.3 235.86-23.75 234.53-23.2 233.53-21.85L233.53-21.85Q236.63-19.5 236.63-15.75L236.63-15.75Q236.63-13.05 235.08-11.1 233.53-9.15 231.06-8.15 228.58-7.15 225.93-7.15L225.93-7.15Q222.08-7.15 219.03-9.05L219.03-9.05Q217.53-7.7 217.53-6.15L217.53-6.15Q217.53-4.85 218.56-4.13 219.58-3.4 221.38-3.4L221.38-3.4Q223.08-3.4 226.48-3.9L226.48-3.9Q227.83-4.1 229.38-4.28 230.93-4.45 232.33-4.45L232.33-4.45ZM225.98-20.7Q223.53-20.7 221.83-19.28 220.13-17.85 220.13-15.6L220.13-15.6Q220.13-13.35 221.81-12 223.48-10.65 225.98-10.65L225.98-10.65Q228.58-10.65 230.21-12.05 231.83-13.45 231.83-15.75L231.83-15.75Q231.83-18 230.16-19.35 228.48-20.7 225.98-20.7L225.98-20.7ZM224.73 6.85Q227.38 6.85 229.76 6.25 232.13 5.65 233.56 4.53 234.98 3.4 234.98 1.95L234.98 1.95Q234.98-0.6 231.28-0.6L231.28-0.6Q230.28-0.6 229.08-0.45 227.88-0.3 226.73-0.1L226.73-0.1Q225.33 0.15 223.71 0.35 222.08 0.55 220.53 0.55L220.53 0.55Q219.18 0.55 217.78 0.2L217.78 0.2Q216.78 1.35 216.78 2.9L216.78 2.9Q216.78 4.75 218.88 5.8 220.98 6.85 224.73 6.85L224.73 6.85ZM299.28-34.3L299.28-30.15 292.83-30.15 292.83-13.25Q292.83-9.3 290.88-6.13 288.93-2.95 285.43-1.15 281.93 0.65 277.43 0.65L277.43 0.65Q272.83 0.65 269.33-1.15 265.83-2.95 263.93-6.1 262.03-9.25 262.03-13.25L262.03-13.25 262.03-30.15 255.58-30.15 255.58-34.3 273.28-34.3 273.28-30.15 267.23-30.15 267.18-13.4Q267.18-10.6 268.48-8.38 269.78-6.15 272.1-4.9 274.43-3.65 277.43-3.65L277.43-3.65Q280.38-3.65 282.73-4.9 285.08-6.15 286.38-8.4 287.68-10.65 287.68-13.45L287.68-13.45 287.63-30.15 281.53-30.15 281.53-34.3 299.28-34.3ZM329.93-3.95L334.63-3.95 334.63 0 320.73 0 320.73-3.95 325.08-3.95 325.08-13.7Q325.08-16.45 323.7-18.03 322.33-19.6 319.78-19.6L319.78-19.6Q315.43-19.6 310.58-14.1L310.58-14.1 310.58-3.95 314.93-3.95 314.93 0 300.38 0 300.38-3.95 305.68-3.95 305.68-19.6 300.38-19.6 300.38-23.55 310.58-23.55 310.58-18Q313.38-21.1 315.95-22.63 318.53-24.15 321.48-24.15L321.48-24.15Q325.53-24.15 327.73-21.55 329.93-18.95 329.93-13.85L329.93-13.85 329.93-3.95ZM354.77-5.35L356.47-1.65Q354.62-0.55 352.85 0.05 351.07 0.65 348.77 0.65L348.77 0.65Q344.92 0.65 342.65-1.78 340.37-4.2 340.37-8.7L340.37-8.7 340.37-19.6 335.12-19.6 335.12-23.55 340.37-23.55 340.37-30.1 345.27-30.1 345.27-23.55 353.07-23.55 353.07-19.6 345.27-19.6 345.27-8.65Q345.27-6.1 346.42-4.9 347.57-3.7 349.52-3.7L349.52-3.7Q350.92-3.7 352.17-4.13 353.42-4.55 354.77-5.35L354.77-5.35ZM365.17-28.9Q363.57-28.9 362.47-29.75 361.37-30.6 361.37-31.9L361.37-31.9Q361.37-33.25 362.47-34.13 363.57-35 365.17-35L365.17-35Q366.87-35 367.97-34.13 369.07-33.25 369.07-31.9L369.07-31.9Q369.07-30.6 367.97-29.75 366.87-28.9 365.17-28.9L365.17-28.9ZM368.17-3.95L373.52-3.95 373.52 0 357.97 0 357.97-3.95 363.27-3.95 363.27-19.6 357.97-19.6 357.97-23.55 368.17-23.55 368.17-3.95ZM385.57-3.95L391.02-3.95 391.02 0 375.42 0 375.42-3.95 380.67-3.95 380.67-30.35 375.42-30.35 375.42-34.3 385.57-34.3 385.57-3.95ZM465.36-34.3L465.36-30.15 459.76-30.15 448.81 0.65 446.26 0.65 435.71-24.35 425.71 0.65 423.11 0.65 412.11-30.15 406.61-30.15 406.61-34.3 423.41-34.3 423.41-30.15 417.56-30.15 424.91-8.05 434.66-33.55 437.46-33.55 447.66-8 454.71-30.15 448.61-30.15 448.61-34.3 465.36-34.3ZM485.46-6.7L487.56-3.5Q482.76 0.7 476.61 0.7L476.61 0.7Q473.26 0.7 470.26-0.7 467.26-2.1 465.41-4.8 463.56-7.5 463.56-11.2L463.56-11.2Q463.56-15.15 465.46-18.1 467.36-21.05 470.41-22.63 473.46-24.2 476.81-24.2L476.81-24.2Q479.76-24.2 482.09-23.25 484.41-22.3 485.74-20.6 487.06-18.9 487.06-16.7L487.06-16.7Q487.06-13.4 484.24-11.58 481.41-9.75 477.46-9.75L477.46-9.75Q474.91-9.75 472.71-10.28 470.51-10.8 468.26-11.8L468.26-11.8 468.26-11.35Q468.26-9 469.39-7.2 470.51-5.4 472.41-4.45 474.31-3.5 476.56-3.5L476.56-3.5Q481.66-3.5 485.46-6.7L485.46-6.7ZM477.16-20.3Q474.46-20.3 472.14-18.75 469.81-17.2 468.81-14.55L468.81-14.55Q472.61-13.2 476.41-13.2L476.41-13.2Q478.91-13.2 480.54-14.13 482.16-15.05 482.16-16.7L482.16-16.7Q482.16-18.3 480.76-19.3 479.36-20.3 477.16-20.3L477.16-20.3ZM525.5-34.3Q529.5-34.3 532.53-33.02 535.56-31.75 537.21-29.35 538.86-26.95 538.86-23.65L538.86-23.65Q538.86-18.6 535.25-15.68 531.66-12.75 525.56-12.75L525.56-12.75 517.56-12.75 517.56-4.15 524.41-4.15 524.41 0 506.01 0 506.01-4.15 512.46-4.15 512.46-30.15 506.01-30.15 506.01-34.3 525.5-34.3ZM525.31-16.9Q529-16.9 531.38-18.48 533.75-20.05 533.75-23.7L533.75-23.7Q533.75-27.05 531.36-28.6 528.96-30.15 525.21-30.15L525.21-30.15 517.56-30.15 517.56-16.95 525.31-16.9ZM552.2-3.95L557.65-3.95 557.65 0 542.05 0 542.05-3.95 547.3-3.95 547.3-30.35 542.05-30.35 542.05-34.3 552.2-34.3 552.2-3.95ZM586.55-4.15L587.55-0.6Q585.9 0.4 583.7 0.4L583.7 0.4Q581.85 0.4 580.58-0.68 579.3-1.75 578.8-3.75L578.8-3.75Q573.8 0.7 568.9 0.7L568.9 0.7Q565.45 0.7 563.05-1.25 560.65-3.2 560.65-6.7L560.65-6.7Q560.65-9.1 562-10.88 563.35-12.65 565.63-13.58 567.9-14.5 570.55-14.5L570.55-14.5Q572.8-14.5 574.7-14.08 576.6-13.65 578.6-12.85L578.6-12.85 578.6-15.05Q578.6-17.6 576.9-18.8 575.2-20 572.45-20L572.45-20Q568.55-20 563.05-17.85L563.05-17.85 562.05-21.65Q567.95-24.15 573.05-24.15L573.05-24.15Q577.9-24.15 580.58-21.78 583.25-19.4 583.25-14.85L583.25-14.85 583.25-6.2Q583.25-3.75 585-3.75L585-3.75Q585.75-3.75 586.55-4.15L586.55-4.15ZM565.5-6.95Q565.5-5.25 566.85-4.33 568.2-3.4 570.15-3.4L570.15-3.4Q571.85-3.4 574.05-4.3 576.25-5.2 578.6-6.95L578.6-6.95 578.6-9.6Q575.2-10.8 571.4-10.9L571.4-10.9Q568.95-10.9 567.23-9.88 565.5-8.85 565.5-6.95L565.5-6.95ZM619.1-23.55L619.1-19.6 615.4-19.6 605.5 2.6Q603.4 7.25 600.77 9.58 598.15 11.9 594.65 11.9L594.65 11.9Q592.7 11.9 591.12 11.28 589.55 10.65 587.7 9.45L587.7 9.45 589.7 5.7Q592.25 7.55 594.65 7.55L594.65 7.55Q596.8 7.55 598.5 6.18 600.2 4.8 601.5 1.8L601.5 1.8 601.85 1 591.75-19.6 587.85-19.6 587.85-23.55 601.05-23.55 601.05-19.95 597-19.95 604.1-4.15 611.05-19.95 607.2-19.95 607.2-23.55 619.1-23.55ZM693.24-34.3L693.24-30.15 687.64-30.15 676.69 0.65 674.14 0.65 663.59-24.35 653.59 0.65 650.99 0.65 639.99-30.15 634.49-30.15 634.49-34.3 651.29-34.3 651.29-30.15 645.44-30.15 652.79-8.05 662.54-33.55 665.34-33.55 675.54-8 682.59-30.15 676.49-30.15 676.49-34.3 693.24-34.3ZM699.84-28.9Q698.24-28.9 697.14-29.75 696.04-30.6 696.04-31.9L696.04-31.9Q696.04-33.25 697.14-34.13 698.24-35 699.84-35L699.84-35Q701.54-35 702.64-34.13 703.74-33.25 703.74-31.9L703.74-31.9Q703.74-30.6 702.64-29.75 701.54-28.9 699.84-28.9L699.84-28.9ZM702.84-3.95L708.19-3.95 708.19 0 692.64 0 692.64-3.95 697.94-3.95 697.94-19.6 692.64-19.6 692.64-23.55 702.84-23.55 702.84-3.95ZM728.74-5.35L730.44-1.65Q728.59-0.55 726.81 0.05 725.04 0.65 722.74 0.65L722.74 0.65Q718.89 0.65 716.61-1.78 714.34-4.2 714.34-8.7L714.34-8.7 714.34-19.6 709.09-19.6 709.09-23.55 714.34-23.55 714.34-30.1 719.24-30.1 719.24-23.55 727.04-23.55 727.04-19.6 719.24-19.6 719.24-8.65Q719.24-6.1 720.39-4.9 721.54-3.7 723.49-3.7L723.49-3.7Q724.89-3.7 726.14-4.13 727.39-4.55 728.74-5.35L728.74-5.35ZM760.68-3.95L765.38-3.95 765.38 0 751.48 0 751.48-3.95 755.83-3.95 755.83-13.7Q755.83-16.6 754.46-18.2 753.08-19.8 750.48-19.8L750.48-19.8Q746.43-19.8 741.48-14.3L741.48-14.3 741.48-3.95 745.78-3.95 745.78 0 731.28 0 731.28-3.95 736.58-3.95 736.58-30.35 731.28-30.35 731.28-34.3 741.48-34.3 741.48-18.15Q744.23-21.15 746.81-22.65 749.38-24.15 752.43-24.15L752.43-24.15Q756.48-24.15 758.58-21.58 760.68-19 760.68-13.85L760.68-13.85 760.68-3.95ZM812.88-10.15L816.23-7.35Q813.78-3.75 810-1.55 806.23 0.65 801.08 0.65L801.08 0.65Q796.18 0.65 792.1-1.63 788.03-3.9 785.68-7.95 783.33-12 783.33-17.1L783.33-17.1Q783.33-22.35 785.63-26.43 787.93-30.5 791.78-32.75 795.63-35 800.08-35L800.08-35Q803.68-35 806.45-33.7 809.23-32.4 811.13-30.05L811.13-30.05 811.18-34.3 815.83-34.3 815.83-23.15 812.53-22.85Q808.93-30.85 800.83-30.85L800.83-30.85Q797.58-30.85 794.8-29.18 792.03-27.5 790.35-24.38 788.68-21.25 788.68-17.15L788.68-17.15Q788.68-13.25 790.33-10.18 791.98-7.1 794.8-5.35 797.63-3.6 801.08-3.6L801.08-3.6Q805.13-3.6 807.95-5.35 810.78-7.1 812.88-10.15L812.88-10.15ZM833.13 0.7Q829.68 0.7 826.68-0.85 823.68-2.4 821.9-5.25 820.13-8.1 820.13-11.75L820.13-11.75Q820.13-15.45 821.9-18.28 823.68-21.1 826.68-22.65 829.68-24.2 833.13-24.2L833.13-24.2Q836.53-24.2 839.5-22.65 842.48-21.1 844.28-18.25 846.08-15.4 846.08-11.75L846.08-11.75Q846.08-8.1 844.33-5.25 842.58-2.4 839.6-0.85 836.63 0.7 833.13 0.7L833.13 0.7ZM833.13-3.25Q835.38-3.25 837.18-4.3 838.98-5.35 840-7.28 841.03-9.2 841.03-11.75L841.03-11.75Q841.03-14.3 840-16.23 838.98-18.15 837.18-19.2 835.38-20.25 833.13-20.25L833.13-20.25Q829.68-20.25 827.45-17.93 825.23-15.6 825.23-11.75L825.23-11.75Q825.23-7.9 827.45-5.58 829.68-3.25 833.13-3.25L833.13-3.25ZM878.52-4.05L879.57-0.45Q878.87-0.05 877.87 0.23 876.87 0.5 875.77 0.5L875.77 0.5Q873.92 0.5 872.57-0.48 871.22-1.45 870.72-3.3L870.72-3.3Q868.72-1.5 866.5-0.4 864.27 0.7 861.57 0.7L861.57 0.7Q858.52 0.7 855.9-0.85 853.27-2.4 851.72-5.18 850.17-7.95 850.17-11.45L850.17-11.45Q850.17-15.1 851.8-18.03 853.42-20.95 856.22-22.58 859.02-24.2 862.42-24.2L862.42-24.2Q866.77-24.2 870.42-21L870.42-21 870.42-30.35 865.12-30.35 865.12-34.3 875.22-34.3 875.22-6.05Q875.22-3.65 876.87-3.65L876.87-3.65Q877.97-3.65 878.52-4.05L878.52-4.05ZM855.27-11.5Q855.27-7.9 857.3-5.7 859.32-3.5 862.57-3.5L862.57-3.5Q866.32-3.5 870.42-6.9L870.42-6.9 870.42-17.25Q866.92-20.05 863.52-20.05L863.52-20.05Q861.17-20.05 859.27-18.95 857.37-17.85 856.32-15.9 855.27-13.95 855.27-11.5L855.27-11.5ZM904.42-6.7L906.52-3.5Q901.72 0.7 895.57 0.7L895.57 0.7Q892.22 0.7 889.22-0.7 886.22-2.1 884.37-4.8 882.52-7.5 882.52-11.2L882.52-11.2Q882.52-15.15 884.42-18.1 886.32-21.05 889.37-22.63 892.42-24.2 895.77-24.2L895.77-24.2Q898.72-24.2 901.05-23.25 903.37-22.3 904.7-20.6 906.02-18.9 906.02-16.7L906.02-16.7Q906.02-13.4 903.2-11.58 900.37-9.75 896.42-9.75L896.42-9.75Q893.87-9.75 891.67-10.28 889.47-10.8 887.22-11.8L887.22-11.8 887.22-11.35Q887.22-9 888.35-7.2 889.47-5.4 891.37-4.45 893.27-3.5 895.52-3.5L895.52-3.5Q900.62-3.5 904.42-6.7L904.42-6.7ZM896.12-20.3Q893.42-20.3 891.1-18.75 888.77-17.2 887.77-14.55L887.77-14.55Q891.57-13.2 895.37-13.2L895.37-13.2Q897.87-13.2 899.5-14.13 901.12-15.05 901.12-16.7L901.12-16.7Q901.12-18.3 899.72-19.3 898.32-20.3 896.12-20.3L896.12-20.3ZM922.62-13.9Q927.22-12.65 929.69-10.78 932.17-8.9 932.17-5.75L932.17-5.75Q932.17-2.85 929.72-1.07 927.27 0.7 923.67 0.7L923.67 0.7Q921.17 0.7 918.74-0.18 916.32-1.05 914.42-2.6L914.42-2.6 914.42 0.05 910.62 0.05 910.62-7.6 912.77-7.8Q914.67-5.65 917.54-4.13 920.42-2.6 923.17-2.6L923.17-2.6Q925.02-2.6 926.07-3.3 927.12-4 927.12-5.3L927.12-5.3Q927.12-6.8 925.47-7.78 923.82-8.75 920.07-9.75L920.07-9.75Q915.57-10.95 913.14-12.78 910.72-14.6 910.72-17.55L910.72-17.55Q910.72-19.4 911.74-20.93 912.77-22.45 914.64-23.33 916.52-24.2 918.97-24.2L918.97-24.2Q921.37-24.2 923.54-23.4 925.72-22.6 927.32-21.15L927.32-21.15 927.32-23.55 931.07-23.55 931.07-15.95 928.87-15.7Q927.47-18.05 925.04-19.48 922.62-20.9 920.22-20.9L920.22-20.9Q918.27-20.9 917.02-20.13 915.77-19.35 915.77-18.1L915.77-18.1Q915.77-16.75 917.42-15.83 919.07-14.9 922.62-13.9L922.62-13.9Z" opacity="1" transform="matrix(1,0,0,1,0,0)" fill="#39a9f5" class="undefined-text-1" data-fill-palette-color="secondary" id="text-1"></path></svg></g></svg></g></svg></g></svg></g><g><svg viewBox="0 0 88.41883297855334 88.4175844935436" height="88.4175844935436" width="88.41883297855334"><g><svg xmlns="http://www.w3.org/2000/svg" xmlns:xlink="http://www.w3.org/1999/xlink" version="1.1" x="0" y="0" viewBox="14.609999656677246 14.609999656677246 70.78199768066406 70.78099822998047" enable-background="new 0 0 100 100" xml:space="preserve" height="88.4175844935436" width="88.41883297855334" class="icon-icon-0" data-fill-palette-color="accent" id="icon-0"><path d="M55.485 42.639L62.9 50l-7.415 7.363 2.549 2.566L68.033 50l-9.999-9.928L55.485 42.639zM41.967 40.072l-10 9.928 10 9.93 2.548-2.566L37.101 50l7.415-7.361L41.967 40.072zM50.001 14.61C30.486 14.61 14.61 30.486 14.61 50c0 19.515 15.876 35.391 35.391 35.391S85.392 69.515 85.392 50C85.392 30.486 69.516 14.61 50.001 14.61zM50.001 81.773C32.48 81.773 18.226 67.521 18.226 50c0-17.52 14.254-31.774 31.775-31.774S81.774 32.48 81.774 50C81.774 67.521 67.521 81.773 50.001 81.773z" fill="#f65454" data-fill-palette-color="accent"></path></svg></g></svg></g></svg></g><defs></defs></svg><rect width="395.5199999999999" height="67.58689513024717" fill="none" stroke="none" visibility="hidden"></rect></g></svg></g></svg>